<svg width="72" height="72" viewBox="0 0 72 72" fill="none" xmlns="http://www.w3.org/2000/svg">
<path d="M15.5 25.5V36H10.5V41H21V36H25.5V20.5H20.5V15.5H10.5V20.5H5.5V25.5H15.5Z" fill="white"/>
<path d="M36 25.5H46V36H41V41H51.5V36H56.5V20.5H51.5V15.5H41V20.5H36V25.5Z" fill="white"/>
<path d="M5.5 31V36H10.5H15.5V25.5H5.5V31Z" fill="#3E60AD"/>
<path d="M46 25.5H36V36H41H46V25.5Z" fill="#3E60AD"/>
<path fill-rule="evenodd" clip-rule="evenodd" d="M0 72H5.5V66.5H10.5V61.5H15.5V66.5H20.5V72H31V61.5H41V72H52V66.5H56.5V61.5H61.5V66.5H66.5V72H72V31H66.5V15.5H61.5V10.5H56.5V5.5H46V0H25.5V5.5H15.5V10.5H10.5V15.5H20.5V20.5H25.5V36H21V41H10.5V36H5.5V31H0V72ZM36 36V25.5V20.5H41V15.5H51.5V20.5H56.5V36H51.5V41H41V36H36Z" fill="#23DAEE"/>
<path d="M10.5 15.5H5.5V20.5H10.5V15.5Z" fill="#23DAEE"/>
</svg>
