<svg width="72" height="72" viewBox="0 0 72 72" fill="none" xmlns="http://www.w3.org/2000/svg">
<path d="M56.5 25.5V36H61.5V41H51V36H46.5V20.5H51.5V15.5H61.5V20.5H66.5V25.5H56.5Z" fill="white"/>
<path d="M36 25.5H26V36H31V41H20.5V36H15.5V20.5H20.5V15.5H31V20.5H36V25.5Z" fill="white"/>
<path d="M66.5 31V36H61.5H56.5V25.5H66.5V31Z" fill="#3E60AD"/>
<path d="M26 25.5H36V36H31H26V25.5Z" fill="#3E60AD"/>
<path fill-rule="evenodd" clip-rule="evenodd" d="M72 72H66.5V66.5H61.5V61.5H56.5V66.5H51.5V72H41V61.5H31V72H20V66.5H15.5V61.5H10.5V66.5H5.5V72H0V31H5.5V15.5H10.5V10.5H15.5V5.5H26V0H46.5V5.5H56.5V10.5H61.5V15.5H51.5V20.5H46.5V36H51V41H61.5V36H66.5V31H72V72ZM36 36V25.5V20.5H31V15.5H20.5V20.5H15.5V36H20.5V41H31V36H36Z" fill="#EE8223"/>
<path d="M61.5 15.5H66.5V20.5H61.5V15.5Z" fill="#EE8223"/>
</svg>
